PathFileType	4	(X/Y/Z)	C:\Users\Basilio\Documents\Thesis Gigler\squatting_fais\c3dfiles\040\SJ_pre2\markers_experimental.trc
DataRate	CameraRate	NumFrames	NumMarkers	Units	OrigDataRate	OrigDataStartFrame	OrigNumFrames
200.000000	200.000000	4	64	mm	200.000000	830	1328
Frame#	Time	FHD			LBHD			RBHD			C7			T10			CLAV			LSHO			LUUPA			LMUPA			LDUPA			LLEP			LMEP			LRAD			LUL			LRFIN			RSHO			RUPA1			RMUPA			RDUPA			RLEP			RMEP			RRAD			RUL			RUFIN			RASI			USACR			LSACR			RSACR			LTHI1			LTHI2			LTHI3			LTHI4			LLFC			LMFC			LTIB1			LTIB2			LTIB3			LTIB4			LLMAL			LMMAL			LHEE			LMT1			LMT2			LMT5			RTHI			RTHI2			RTHI3			RTHI4			RLFC			RMFC			RTIB1			RTIB2			RTIB3			RTIB4			RLMAL			RMMAL			RHEE			RMT1			RMT2			RMT5			LASI			*61			*62			*63			
		X1	Y1	Z1	X2	Y2	Z2	X3	Y3	Z3	X4	Y4	Z4	X5	Y5	Z5	X6	Y6	Z6	X7	Y7	Z7	X8	Y8	Z8	X9	Y9	Z9	X10	Y10	Z10	X11	Y11	Z11	X12	Y12	Z12	X13	Y13	Z13	X14	Y14	Z14	X15	Y15	Z15	X16	Y16	Z16	X17	Y17	Z17	X18	Y18	Z18	X19	Y19	Z19	X20	Y20	Z20	X21	Y21	Z21	X22	Y22	Z22	X23	Y23	Z23	X24	Y24	Z24	X25	Y25	Z25	X26	Y26	Z26	X27	Y27	Z27	X28	Y28	Z28	X29	Y29	Z29	X30	Y30	Z30	X31	Y31	Z31	X32	Y32	Z32	X33	Y33	Z33	X34	Y34	Z34	X35	Y35	Z35	X36	Y36	Z36	X37	Y37	Z37	X38	Y38	Z38	X39	Y39	Z39	X40	Y40	Z40	X41	Y41	Z41	X42	Y42	Z42	X43	Y43	Z43	X44	Y44	Z44	X45	Y45	Z45	X46	Y46	Z46	X47	Y47	Z47	X48	Y48	Z48	X49	Y49	Z49	X50	Y50	Z50	X51	Y51	Z51	X52	Y52	Z52	X53	Y53	Z53	X54	Y54	Z54	X55	Y55	Z55	X56	Y56	Z56	X57	Y57	Z57	X58	Y58	Z58	X59	Y59	Z59	X60	Y60	Z60	X61	Y61	Z61	X62	Y62	Z62	X63	Y63	Z63	X64	Y64	Z64	

831	4.15	-248.8885803222657	2211.32275390625	-909.3809204101565	-366.6972656250001	2143.3408203125	-948.4280395507815	-414.6719665527345	2105.4736328125	-814.9605102539065	-395.9983825683595	1990.073120117188	-858.7283935546877	-390.6560974121095	1670.12158203125	-848.2324218750002	-262.4869995117188	1933.810302734375	-861.327087402344	-296.6900024414063	1974.775756835938	-1034.174926757813	-360.7551879882813	1841.248779296875	-1188.719848632813	-342.6162719726563	1795.591918945313	-1182.607299804688	-382.5685729980469	1787.479736328125	-1228.132690429688	-414.6365051269532	1736.49658203125	-1261.976196289063	-479.7229919433595	1744.290161132813	-1223.3955078125	-441.8513793945314	1518.928344726563	-1057.088745117188	-408.6099548339845	1479.420043945313	-1111.60693359375	-380.1670227050782	1529.4814453125	-1029.068115234375	-274.6398315429688	1976.603881835938	-687.9741210937501	-370.0959472656251	1888.470581054688	-523.4591674804689	-347.6560668945313	1844.400268554688	-511.843475341797	-393.2145080566407	1845.93994140625	-472.4339904785157	-407.1034240722657	1784.5400390625	-430.295135498047	-477.6630249023439	1776.414672851563	-478.9315795898439	-350.7108154296876	1588.509521484375	-635.2815551757814	-348.2533264160157	1536.21142578125	-580.1223144531251	-282.2525634765626	1573.595825195313	-661.0352172851564	-223.0159912109376	1495.04296875	-736.2639160156251	-404.0039978027345	1548.480712890625	-838.2095947265627	-416.9466857910157	1516.27783203125	-862.105163574219	-411.1875000000001	1521.116577148438	-806.8756103515627	-385.3158569335939	1246.64599609375	-1044.703002929688	-354.3109741210938	1170.302612304688	-1065.1875	-307.5150756835938	1170.539306640625	-1068.682250976563	-380.0142211914063	1117.406982421875	-1056.727172851563	-369.6235046386719	985.7739868164065	-1071.13427734375	-364.0897827148438	944.0527954101565	-944.5361938476565	-356.1253967285157	756.4788818359376	-1074.46435546875	-432.6731262207032	733.8166503906251	-1112.958740234375	-390.9454650878907	719.0347290039064	-1105.924438476563	-388.4219665527345	634.3259887695314	-1086.6484375	-465.717742919922	554.8334350585939	-1106.727783203125	-422.807830810547	548.0293579101564	-1030.33447265625	-530.1388549804689	535.6335449218751	-1058.05419921875	-345.6000061035157	416.5339660644532	-1054.986450195313	-351.3158569335938	415.5023193359376	-1100.844116210938	-409.9197998046876	417.3764038085939	-1139.74462890625	-319.1246643066407	1241.067016601563	-625.0250854492189	-295.0530700683594	1178.697631835938	-620.3289794921876	-263.8568725585938	1172.75927734375	-628.9006958007814	-339.4219055175782	1107.737915039063	-618.3025512695314	-356.7063598632813	975.0130004882815	-606.2091674804689	-365.3807373046876	946.3447265625002	-737.0848999023439	-351.1900634765626	780.729675292969	-598.4688110351564	-435.4691162109376	729.2218017578126	-557.3736572265626	-393.1701049804689	712.5291748046876	-567.2407226562501	-391.153289794922	658.2857055664064	-592.3585205078126	-468.322723388672	564.4799194335939	-550.5760498046876	-454.2028198242189	562.4804077148439	-636.7484741210939	-545.7620239257814	552.9962158203126	-598.5200195312501	-369.4394531250001	420.4201965332032	-623.9872436523439	-367.3532409667969	422.3446655273439	-583.8806152343751	-411.8920898437501	421.5955200195314	-529.9354248046876	-246.0648498535157	1492.869995117188	-964.8633422851565	nan	nan	nan	nan	nan	nan	nan	nan	nan	
832	4.155	-248.0487060546876	2206.9404296875	-909.5766601562502	-366.1457519531251	2139.325439453125	-948.5755615234377	-414.0206909179689	2101.53564453125	-814.9680175781252	-395.8162841796876	1986.005126953125	-858.6806640625002	-391.243865966797	1666.51318359375	-847.9328613281252	-262.4316101074219	1929.107055664063	-861.5577392578127	-296.6801757812501	1970.084716796875	-1034.168701171875	-361.8262634277344	1837.532836914063	-1188.579345703125	-343.8579101562501	1791.279541015625	-1182.474365234375	-383.7864990234376	1783.18798828125	-1227.766479492188	-416.8238220214845	1732.42236328125	-1261.541625976563	-481.5640258789064	1740.548950195313	-1222.709350585938	-443.6504211425782	1514.881591796875	-1056.664428710938	-410.6956787109376	1475.19287109375	-1111.36328125	-381.0151062011719	1524.926025390625	-1029.567626953125	-274.2925109863282	1972.477172851563	-688.2441406250001	-369.6937866210938	1884.506103515625	-523.6431274414064	-347.4712524414063	1840.028686523438	-512.3187255859376	-393.2981262207032	1841.583740234375	-472.690887451172	-407.4512329101564	1781.193115234375	-430.877899169922	-477.6550292968751	1772.336059570313	-479.2740783691407	-350.8029785156251	1583.942504882813	-635.1453247070314	-348.4666137695313	1531.93359375	-580.1043701171876	-282.5458984375001	1569.331298828125	-661.3432006835939	-224.1690826416016	1490.558959960938	-736.6909179687501	-404.9403076171876	1544.433959960938	-837.8638305664065	-417.7505798339845	1512.548583984375	-861.5964965820315	-412.0050048828126	1516.824340820313	-806.5573730468752	-385.7930908203126	1241.924682617188	-1044.366943359375	-354.5660095214844	1165.785888671875	-1064.816772460938	-307.7073669433594	1166.1357421875	-1068.449340820313	-379.9101562500001	1112.744873046875	-1056.440307617188	-368.9996032714844	981.1702880859377	-1071.053344726563	-363.1347045898438	939.4699707031252	-944.4423828125002	-355.8824157714844	751.7113037109376	-1074.173828125	-432.7622375488282	729.4692382812501	-1112.56396484375	-391.867401123047	714.3683471679689	-1105.383422851563	-388.7953491210939	630.2310791015626	-1086.501708984375	-466.0995178222657	550.3541259765626	-1106.469116210938	-423.560516357422	543.8228149414064	-1030.132080078125	-530.5457153320314	531.2484741210939	-1057.958374023438	-345.9882507324219	412.3098144531251	-1054.448852539063	-350.9558105468751	410.9434814453126	-1100.068969726563	-409.6575927734376	413.2290954589845	-1139.690551757813	-319.1562500000001	1236.585083007813	-624.8699340820314	-295.0984497070313	1173.65576171875	-621.0031127929689	-263.3776855468751	1168.358764648438	-629.6083374023439	-338.4624633789063	1103.2119140625	-618.3515014648439	-355.6603698730469	970.194763183594	-605.8886108398439	-364.6842041015626	941.740905761719	-736.9829101562501	-350.7720947265626	776.6157836914065	-598.2662963867189	-435.2949218750001	725.3959960937501	-556.9523925781251	-393.409393310547	708.0560302734376	-566.9070434570314	-392.0822143554689	654.0583496093751	-591.9228515625001	-469.4370117187501	560.8814086914064	-549.2499389648439	-456.1467285156251	558.6372070312501	-635.9670410156251	-547.1274414062501	548.0115966796876	-596.3877563476564	-370.5233459472657	417.0201416015626	-624.1664428710939	-368.1244812011719	419.096405029297	-583.9862670898439	-411.8078918457032	418.2641601562501	-529.4362792968751	-247.5969848632813	1488.616333007813	-965.2489013671877	nan	nan	nan	nan	nan	nan	nan	nan	nan	
833	4.16	-247.1367492675782	2202.388427734375	-909.5736083984377	-365.4648742675782	2134.879638671875	-948.7068481445315	-413.6150817871095	2097.327392578125	-815.151062011719	-395.4356384277345	1981.909301757813	-858.7805786132815	-391.9808959960939	1662.28466796875	-847.6754150390627	-262.3663940429688	1924.560546875	-861.8421020507815	-296.8331604003907	1965.536987304688	-1034.578491210938	-363.1596984863282	1832.648803710938	-1188.254272460938	-345.4580383300782	1786.560913085938	-1182.013061523438	-385.736053466797	1778.687255859375	-1227.150146484375	-418.797576904297	1728.056884765625	-1260.948974609375	-483.3922729492189	1736.616577148438	-1221.9267578125	-445.6191711425782	1510.3955078125	-1056.243530273438	-412.8400878906251	1470.819091796875	-1111.165771484375	-382.7723388671876	1520.421264648438	-1029.355590820313	-273.7656555175782	1967.818969726563	-688.5062866210939	-369.2020874023438	1880.178466796875	-523.8958129882814	-347.2096557617188	1835.476928710938	-512.6147460937501	-392.9195556640626	1837.2412109375	-473.1700439453126	-407.5901489257814	1776.609497070313	-431.0587463378907	-477.8471069335939	1768.255126953125	-479.613006591797	-351.1666259765626	1579.30126953125	-635.0415649414064	-348.8011169433594	1527.371948242188	-579.9713134765626	-283.0441894531251	1564.330200195313	-661.4219360351564	-225.5530395507813	1485.7490234375	-736.7451782226564	-406.2088012695314	1539.9140625	-837.737487792969	-418.8560180664064	1507.880126953125	-861.1900634765627	-413.6782836914064	1512.568115234375	-806.0835571289065	-386.3656311035157	1236.72998046875	-1044.03564453125	-354.9293518066407	1161.062133789063	-1064.58203125	-307.8702087402344	1161.546142578125	-1068.259643554688	-379.7290344238282	1107.85498046875	-1056.17724609375	-368.4192810058594	976.3033447265627	-1070.869140625	-362.4630432128907	934.6184082031252	-944.3099365234377	-355.9002685546876	747.2391967773439	-1074.186767578125	-432.8699951171876	724.7860107421876	-1112.296752929688	-391.3567504882814	710.3218383789064	-1105.360229492188	-389.2768554687501	625.5390014648439	-1086.145874023438	-466.5371704101564	545.8198852539064	-1106.333129882813	-423.8996582031251	539.3391723632814	-1029.746215820313	-531.2756347656251	526.1146240234376	-1057.751220703125	-346.5762023925782	407.6911926269532	-1054.017822265625	-350.6384277343751	405.9165039062501	-1100.031005859375	-409.7274169921876	408.8469543457032	-1139.59765625	-318.8874206542969	1231.519653320313	-624.9147949218751	-294.8541564941407	1169.155883789063	-621.2348632812501	-263.1432800292969	1163.669067382813	-629.6162719726564	-337.7660522460938	1098.213012695313	-618.1807250976564	-354.3715820312501	965.4259033203127	-605.7741088867189	-363.8246459960938	936.7803344726565	-736.7701416015626	-350.4945068359376	771.274108886719	-597.9208984375001	-435.4171142578126	721.0764770507814	-556.3792724609376	-393.775360107422	703.6901855468751	-566.5516967773439	-392.7783508300782	649.4957885742189	-591.3966674804689	-470.4473571777345	556.5545043945314	-548.1593627929689	-457.7895507812501	554.5123901367189	-635.0912475585939	-548.6888427734376	543.3351440429689	-594.4169921875001	-371.4404907226563	414.047576904297	-624.0913696289064	-368.7168884277344	415.8198547363282	-584.0822753906251	-411.7206115722657	414.4418029785157	-529.0666503906251	-249.0955810546876	1483.649536132813	-965.4837036132815	nan	nan	nan	nan	nan	nan	nan	nan	nan	
834	4.165	-246.3796691894532	2197.427001953125	-909.6316528320315	-364.6710815429688	2130.34228515625	-948.875671386719	-413.3367309570314	2092.907958984375	-815.3374023437502	-395.2429809570314	1977.47998046875	-858.8474731445315	-392.5733642578126	1657.930908203125	-847.3892211914065	-262.3291015625001	1919.84716796875	-862.1062622070315	-297.0844421386719	1960.435546875	-1034.570190429688	-364.0153808593751	1827.590942382813	-1187.959106445313	-346.1386413574219	1781.125854492188	-1181.993774414063	-387.0888977050782	1773.7607421875	-1226.945434570313	-420.9960021972657	1723.577270507813	-1260.594970703125	-485.2766418457032	1732.38623046875	-1221.16015625	-447.5020141601564	1505.743896484375	-1055.833740234375	-415.0875549316407	1466.18359375	-1110.910888671875	-384.5776367187501	1515.540161132813	-1029.292724609375	-273.4242248535157	1963.276733398438	-688.9376220703126	-368.3070678710938	1875.552978515625	-523.8854980468751	-346.7592468261719	1830.834350585938	-513.0551757812501	-392.5272216796876	1832.68896484375	-473.2248840332032	-407.5157470703126	1772.558959960938	-431.2016601562501	-477.8755493164064	1763.930786132813	-479.9842834472657	-351.4935607910157	1574.477661132813	-634.8798828125001	-349.1120605468751	1522.5859375	-579.5623779296876	-283.5461120605469	1559.525024414063	-661.5895385742189	-226.5308990478516	1480.415283203125	-737.1560058593751	-407.540252685547	1535.66845703125	-837.414245605469	-420.2742919921876	1503.563598632813	-860.7586059570315	-415.078826904297	1508.441284179688	-805.777526855469	-387.0311889648439	1231.681030273438	-1043.534790039063	-355.1491394042969	1155.95849609375	-1064.3671875	-308.2924804687501	1156.925415039063	-1068.102783203125	-379.7518920898438	1102.557373046875	-1056.005126953125	-368.1618652343751	971.4046630859377	-1070.678466796875	-361.7386474609376	929.5736083984377	-944.153259277344	-356.0085754394532	742.2600097656251	-1073.998901367188	-432.8925170898439	719.9468994140626	-1112.014892578125	-391.3302612304689	705.2362060546876	-1105.206909179688	-390.0868225097657	621.1611328125001	-1086.289428710938	-466.9322204589845	540.9705810546876	-1106.088500976563	-424.2434387207032	534.3839111328126	-1029.389038085938	-531.8709716796876	520.9857788085939	-1057.510131835938	-346.5089111328126	403.5923156738282	-1053.918823242188	-350.7137145996094	402.016815185547	-1099.611694335938	-409.5383605957032	404.255340576172	-1139.3837890625	-319.0365905761719	1226.558471679688	-624.7731933593751	-294.6969909667969	1163.995483398438	-621.1423339843751	-262.8944091796876	1158.890747070313	-630.0379028320314	-337.5600280761719	1093.21142578125	-618.0249023437501	-352.8187866210938	960.2554321289065	-605.5192871093751	-363.0119628906251	931.7183227539065	-736.4954223632814	-350.4146423339844	766.5951538085939	-597.9325561523439	-435.4287109375001	716.7644653320314	-555.8435668945314	-393.9425659179689	699.0044555664064	-565.7225952148439	-393.109344482422	644.4773559570314	-590.9951782226564	-471.4151916503907	552.2554321289064	-547.1306762695314	-459.5886840820314	550.1442871093751	-634.2752075195314	-550.2593994140626	538.3427124023439	-592.7601318359376	-371.9328308105469	410.0942687988282	-623.8769531250001	-368.8833007812501	412.3528442382814	-584.0097656250001	-411.403045654297	410.7918395996095	-528.3997802734376	-250.4969024658204	1478.51708984375	-965.6113281250002	nan	nan	nan	nan	nan	nan	nan	nan	nan	
